BodoniModa-Regular.ufo
<glyph name="slash" format="2">
  <advance width="1072"/>
  <unicode hex="002F"/>
  <outline>
    <contour>
      <point x="80" y="-300" type="line"/>
      <point x="153" y="-300" type="line"/>
      <point x="993" y="1561" type="line"/>
      <point x="920" y="1561" type="line"/>
    </contour>
  </outline>
</glyph>
<glyph name="six" format="2">
  <advance width="1119"/>
  <unicode hex="0036"/>
  <outline>
    <contour>
      <point x="588" y="-20" type="curve" smooth="yes"/>
      <point x="890" y="-20"/>
      <point x="1061" y="200"/>
      <point x="1061" y="500" type="curve" smooth="yes"/>
      <point x="1061" y="840"/>
      <point x="824" y="980"/>
      <point x="622" y="980" type="curve" smooth="yes"/>
      <point x="360" y="980"/>
      <point x="238" y="795"/>
      <point x="238" y="561" type="curve"/>
      <point x="300" y="561" type="line"/>
      <point x="300" y="782"/>
      <point x="412" y="889"/>
      <point x="578" y="889" type="curve" smooth="yes"/>
      <point x="756" y="889"/>
      <point x="859" y="768"/>
      <point x="859" y="500" type="curve" smooth="yes"/>
      <point x="859" y="271"/>
      <point x="812" y="53"/>
      <point x="594" y="53" type="curve" smooth="yes"/>
      <point x="376" y="53"/>
      <point x="300" y="293"/>
      <point x="300" y="561" type="curve"/>
      <point x="311" y="740" type="line"/>
      <point x="311" y="1084"/>
      <point x="562" y="1453"/>
      <point x="910" y="1453" type="curve"/>
      <point x="910" y="1520" type="line"/>
      <point x="465" y="1520"/>
      <point x="100" y="1106"/>
      <point x="100" y="620" type="curve" smooth="yes"/>
      <point x="100" y="200"/>
      <point x="286" y="-20"/>
    </contour>
  </outline>
</glyph>
<glyph name="A" format="2">
  <advance width="1611"/>
  <unicode hex="0041"/>
  <anchor x="746" y="0" name="bottom"/>
  <anchor x="1266" y="0" name="ogonek"/>
  <anchor x="814" y="1500" name="top"/>
  <outline>
    <contour>
      <point x="461" y="453" type="line"/>
      <point x="1121" y="453" type="line"/>
      <point x="1121" y="526" type="line"/>
      <point x="461" y="526" type="line"/>
    </contour>
    <contour>
      <point x="851" y="1529" type="line"/>
      <point x="776" y="1529" type="line"/>
      <point x="260" y="73" type="line"/>
      <point x="86" y="73" type="line"/>
      <point x="86" y="0" type="line"/>
      <point x="526" y="0" type="line"/>
      <point x="526" y="73" type="line"/>
      <point x="343" y="73" type="line"/>
      <point x="754" y="1256" type="line"/>
      <point x="1136" y="73" type="line"/>
      <point x="945" y="73" type="line"/>
      <point x="945" y="0" type="line"/>
      <point x="1525" y="0" type="line"/>
      <point x="1525" y="73" type="line"/>
      <point x="1356" y="73" type="line"/>
    </contour>
  </outline>
</glyph>
<glyph name="C" format="2">
  <advance width="1522"/>
  <unicode hex="0043"/>
  <anchor x="817" y="0" name="bottom"/>
  <anchor x="816" y="1500" name="top"/>
  <outline>
    <contour>
      <point x="816" y="-20" type="curve" smooth="yes"/>
      <point x="965" y="-20"/>
      <point x="1101" y="31"/>
      <point x="1196" y="112" type="curve"/>
      <point x="1276" y="0" type="line"/>
      <point x="1340" y="0" type="line"/>
      <point x="1340" y="410" type="line"/>
      <point x="1267" y="410" type="line"/>
      <point x="1247" y="206"/>
      <point x="1084" y="62"/>
      <point x="836" y="62" type="curve" smooth="yes"/>
      <point x="488" y="62"/>
      <point x="366" y="387"/>
      <point x="366" y="750" type="curve" smooth="yes"/>
      <point x="366" y="1113"/>
      <point x="488" y="1438"/>
      <point x="836" y="1438" type="curve" smooth="yes"/>
      <point x="1044" y="1438"/>
      <point x="1226" y="1315"/>
      <point x="1246" y="1090" type="curve"/>
      <point x="1320" y="1090" type="line"/>
      <point x="1320" y="1500" type="line"/>
      <point x="1256" y="1500" type="line"/>
      <point x="1168" y="1394" type="line"/>
      <point x="1073" y="1473"/>
      <point x="946" y="1520"/>
      <point x="816" y="1520" type="curve" smooth="yes"/>
      <point x="410" y="1520"/>
      <point x="137" y="1195"/>
      <point x="137" y="750" type="curve" smooth="yes"/>
      <point x="137" y="305"/>
      <point x="410" y="-20"/>
    </contour>
  </outline>
</glyph>
<glyph name="G" format="2">
  <advance width="1532"/>
  <unicode hex="0047"/>
  <anchor x="787" y="0" name="bottom"/>
  <anchor x="786" y="0" name="cedilla"/>
  <anchor x="816" y="1500" name="top"/>
  <outline>
    <contour>
      <point x="916" y="611" type="line"/>
      <point x="916" y="529" type="line"/>
      <point x="1127" y="529" type="line"/>
      <point x="1127" y="250" type="line"/>
      <point x="1107" y="206"/>
      <point x="1035" y="54"/>
      <point x="787" y="54" type="curve" smooth="yes"/>
      <point x="449" y="54"/>
      <point x="366" y="387"/>
      <point x="366" y="750" type="curve" smooth="yes"/>
      <point x="366" y="1113"/>
      <point x="488" y="1437"/>
      <point x="836" y="1437" type="curve" smooth="yes"/>
      <point x="1044" y="1437"/>
      <point x="1226" y="1315"/>
      <point x="1246" y="1090" type="curve"/>
      <point x="1320" y="1090" type="line"/>
      <point x="1320" y="1500" type="line"/>
      <point x="1256" y="1500" type="line"/>
      <point x="1168" y="1394" type="line"/>
      <point x="1073" y="1473"/>
      <point x="946" y="1520"/>
      <point x="816" y="1520" type="curve" smooth="yes"/>
      <point x="410" y="1520"/>
      <point x="137" y="1195"/>
      <point x="137" y="750" type="curve" smooth="yes"/>
      <point x="137" y="305"/>
      <point x="371" y="-20"/>
      <point x="787" y="-20" type="curve" smooth="yes"/>
      <point x="1113" y="-20"/>
      <point x="1275" y="204"/>
      <point x="1336" y="330" type="curve"/>
      <point x="1336" y="529" type="line"/>
      <point x="1457" y="529" type="line"/>
      <point x="1457" y="611" type="line"/>
    </contour>
  </outline>
</glyph>
<glyph name="I" format="2">
  <advance width="822"/>
  <unicode hex="0049"/>
  <anchor x="402" y="0" name="bottom"/>
  <anchor x="402" y="0" name="ogonek"/>
  <anchor x="406" y="1500" name="top"/>
  <outline>
    <contour>
      <point x="86" y="0" type="line"/>
      <point x="736" y="0" type="line"/>
      <point x="736" y="73" type="line"/>
      <point x="496" y="73" type="line"/>
      <point x="496" y="1427" type="line"/>
      <point x="736" y="1427" type="line"/>
      <point x="736" y="1500" type="line"/>
      <point x="86" y="1500" type="line"/>
      <point x="86" y="1427" type="line"/>
      <point x="307" y="1427" type="line"/>
      <point x="307" y="73" type="line"/>
      <point x="86" y="73" type="line"/>
    </contour>
  </outline>
</glyph>
<glyph name="P" format="2">
  <advance width="1322"/>
  <unicode hex="0050"/>
  <anchor x="362" y="0" name="bottom"/>
  <anchor x="566" y="1500" name="top"/>
  <outline>
    <contour>
      <point x="676" y="1500" type="curve" smooth="yes"/>
      <point x="86" y="1500" type="line"/>
      <point x="86" y="1427" type="line"/>
      <point x="267" y="1427" type="line"/>
      <point x="267" y="73" type="line"/>
      <point x="86" y="73" type="line"/>
      <point x="86" y="0" type="line"/>
      <point x="637" y="0" type="line"/>
      <point x="637" y="73" type="line"/>
      <point x="457" y="73" type="line"/>
      <point x="457" y="619" type="line"/>
      <point x="676" y="619" type="line" smooth="yes"/>
      <point x="1037" y="619"/>
      <point x="1196" y="799"/>
      <point x="1196" y="1059" type="curve" smooth="yes"/>
      <point x="1196" y="1319"/>
      <point x="1037" y="1500"/>
    </contour>
    <contour>
      <point x="457" y="691" type="line"/>
      <point x="457" y="1427" type="line"/>
      <point x="676" y="1427" type="line" smooth="yes"/>
      <point x="867" y="1427"/>
      <point x="977" y="1237"/>
      <point x="977" y="1059" type="curve" smooth="yes"/>
      <point x="977" y="881"/>
      <point x="867" y="691"/>
      <point x="676" y="691" type="curve" smooth="yes"/>
    </contour>
  </outline>
</glyph>
<glyph name="X" format="2">
  <advance width="1605"/>
  <unicode hex="0058"/>
  <anchor x="746" y="0" name="bottom"/>
  <anchor x="826" y="1500" name="top"/>
  <outline>
    <contour>
      <point x="934" y="0" type="line"/>
      <point x="1518" y="0" type="line"/>
      <point x="1518" y="73" type="line"/>
      <point x="1345" y="73" type="line"/>
      <point x="530" y="1427" type="line"/>
      <point x="694" y="1427" type="line"/>
      <point x="694" y="1500" type="line"/>
      <point x="135" y="1500" type="line"/>
      <point x="135" y="1427" type="line"/>
      <point x="298" y="1427" type="line"/>
      <point x="1105" y="73" type="line"/>
      <point x="934" y="73" type="line"/>
    </contour>
    <contour>
      <point x="64" y="0" type="line"/>
      <point x="529" y="0" type="line"/>
      <point x="529" y="73" type="line"/>
      <point x="325" y="73" type="line"/>
      <point x="799" y="777" type="line"/>
      <point x="750" y="834" type="line"/>
      <point x="237" y="73" type="line"/>
      <point x="64" y="73" type="line"/>
    </contour>
    <contour>
      <point x="807" y="883" type="line"/>
      <point x="857" y="820" type="line"/>
      <point x="1244" y="1427" type="line"/>
      <point x="1407" y="1427" type="line"/>
      <point x="1407" y="1500" type="line"/>
      <point x="981" y="1500" type="line"/>
      <point x="981" y="1427" type="line"/>
      <point x="1160" y="1427" type="line"/>
    </contour>
  </outline>
</glyph>
<glyph name="b" format="2">
  <advance width="1239"/>
  <unicode hex="0062"/>
  <anchor x="606" y="0" name="bottom"/>
  <anchor x="736" y="920" name="top"/>
  <outline>
    <contour>
      <point x="729" y="-20" type="curve" smooth="yes"/>
      <point x="932" y="-20"/>
      <point x="1128" y="160"/>
      <point x="1128" y="460" type="curve" smooth="yes"/>
      <point x="1128" y="760"/>
      <point x="932" y="938"/>
      <point x="729" y="938" type="curve" smooth="yes"/>
      <point x="584" y="938"/>
      <point x="466" y="836"/>
      <point x="402" y="699" type="curve"/>
      <point x="402" y="1500" type="line"/>
      <point x="82" y="1500" type="line"/>
      <point x="82" y="1427" type="line"/>
      <point x="222" y="1427" type="line"/>
      <point x="222" y="73" type="line"/>
      <point x="82" y="73" type="line"/>
      <point x="82" y="0" type="line"/>
      <point x="402" y="0" type="line"/>
      <point x="402" y="220" type="line"/>
      <point x="466" y="83"/>
      <point x="584" y="-20"/>
    </contour>
    <contour>
      <point x="688" y="73" type="curve" smooth="yes"/>
      <point x="545" y="73"/>
      <point x="402" y="226"/>
      <point x="402" y="460" type="curve" smooth="yes"/>
      <point x="402" y="694"/>
      <point x="545" y="845"/>
      <point x="688" y="845" type="curve" smooth="yes"/>
      <point x="832" y="845"/>
      <point x="928" y="728"/>
      <point x="928" y="460" type="curve" smooth="yes"/>
      <point x="928" y="192"/>
      <point x="832" y="73"/>
    </contour>
  </outline>
</glyph>
<glyph name="d" format="2">
  <advance width="1239"/>
  <unicode hex="0064"/>
  <anchor x="656" y="0" name="bottom"/>
  <anchor x="976" y="0" name="cedilla"/>
  <anchor x="620" y="460" name="center"/>
  <anchor x="496" y="920" name="top"/>
  <anchor x="1149" y="920" name="topright"/>
  <outline>
    <contour>
      <point x="512" y="-20" type="curve" smooth="yes"/>
      <point x="657" y="-20"/>
      <point x="774" y="82"/>
      <point x="838" y="218" type="curve"/>
      <point x="838" y="0" type="line"/>
      <point x="1158" y="0" type="line"/>
      <point x="1158" y="73" type="line"/>
      <point x="1018" y="73" type="line"/>
      <point x="1018" y="1500" type="line"/>
      <point x="697" y="1500" type="line"/>
      <point x="697" y="1427" type="line"/>
      <point x="838" y="1427" type="line"/>
      <point x="838" y="698" type="line"/>
      <point x="774" y="835"/>
      <point x="657" y="938"/>
      <point x="512" y="938" type="curve" smooth="yes"/>
      <point x="309" y="938"/>
      <point x="111" y="758"/>
      <point x="111" y="458" type="curve" smooth="yes"/>
      <point x="111" y="158"/>
      <point x="309" y="-20"/>
    </contour>
    <contour>
      <point x="551" y="73" type="curve" smooth="yes"/>
      <point x="407" y="73"/>
      <point x="312" y="190"/>
      <point x="312" y="458" type="curve" smooth="yes"/>
      <point x="312" y="726"/>
      <point x="407" y="845"/>
      <point x="551" y="845" type="curve" smooth="yes"/>
      <point x="694" y="845"/>
      <point x="838" y="692"/>
      <point x="838" y="458" type="curve" smooth="yes"/>
      <point x="838" y="224"/>
      <point x="694" y="73"/>
    </contour>
  </outline>
</glyph>
<glyph name="v" format="2">
  <advance width="1063"/>
  <unicode hex="0076"/>
  <anchor x="546" y="0" name="bottom"/>
  <anchor x="596" y="920" name="top"/>
  <outline>
    <contour>
      <point x="1021" y="920" type="line"/>
      <point x="684" y="920" type="line"/>
      <point x="684" y="848" type="line"/>
      <point x="851" y="848" type="line"/>
      <point x="597" y="206" type="line"/>
      <point x="350" y="848" type="line"/>
      <point x="516" y="848" type="line"/>
      <point x="516" y="920" type="line"/>
      <point x="41" y="920" type="line"/>
      <point x="41" y="848" type="line"/>
      <point x="153" y="848" type="line"/>
      <point x="509" y="-20" type="line"/>
      <point x="590" y="-20" type="line"/>
      <point x="937" y="848" type="line"/>
      <point x="1021" y="848" type="line"/>
    </contour>
  </outline>
</glyph>
<glyph name="y" format="2">
  <advance width="1082"/>
  <unicode hex="0079"/>
  <anchor x="306" y="-500" name="bottom"/>
  <anchor x="596" y="920" name="top"/>
  <outline>
    <contour>
      <point x="335" y="848" type="line"/>
      <point x="495" y="848" type="line"/>
      <point x="495" y="920" type="line"/>
      <point x="41" y="920" type="line"/>
      <point x="41" y="848" type="line"/>
      <point x="136" y="848" type="line"/>
      <point x="553" y="-34" type="line"/>
      <point x="654" y="176" type="line"/>
    </contour>
    <contour>
      <point x="1061" y="920" type="line"/>
      <point x="738" y="920" type="line"/>
      <point x="738" y="848" type="line"/>
      <point x="882" y="848" type="line"/>
      <point x="353" y="-357" type="line"/>
      <point x="337" y="-326"/>
      <point x="307" y="-309"/>
      <point x="268" y="-309" type="curve" smooth="yes"/>
      <point x="204" y="-309"/>
      <point x="157" y="-354"/>
      <point x="157" y="-420" type="curve" smooth="yes"/>
      <point x="157" y="-496"/>
      <point x="220" y="-527"/>
      <point x="270" y="-527" type="curve" smooth="yes"/>
      <point x="346" y="-527"/>
      <point x="387" y="-478"/>
      <point x="423" y="-396" type="curve" smooth="yes"/>
      <point x="969" y="848" type="line"/>
      <point x="1061" y="848" type="line"/>
    </contour>
  </outline>
</glyph>
<glyph name="brokenbar" format="2">
  <advance width="439"/>
  <unicode hex="00A6"/>
  <outline>
    <contour>
      <point x="200" y="-499.94" type="line"/>
      <point x="273" y="-499.94" type="line"/>
      <point x="273" y="332.457" type="line"/>
      <point x="200" y="332.457" type="line"/>
    </contour>
    <contour>
      <point x="200" y="817.905" type="line"/>
      <point x="273" y="817.905" type="line"/>
      <point x="273" y="1560.257" type="line"/>
      <point x="200" y="1560.257" type="line"/>
    </contour>
  </outline>
</glyph>
<glyph name="copyright" format="2">
  <advance width="1739"/>
  <unicode hex="00A9"/>
  <anchor x="869.6" y="1200" name="top"/>
  <outline>
    <contour>
      <point x="882" y="337" type="curve" smooth="yes"/>
      <point x="673" y="337"/>
      <point x="600" y="532"/>
      <point x="600" y="750" type="curve" smooth="yes"/>
      <point x="600" y="968"/>
      <point x="673" y="1163"/>
      <point x="882" y="1163" type="curve" smooth="yes"/>
      <point x="1006" y="1163"/>
      <point x="1116" y="1089"/>
      <point x="1128" y="954" type="curve"/>
      <point x="1172" y="954" type="line"/>
      <point x="1172" y="1200" type="line"/>
      <point x="1134" y="1200" type="line"/>
      <point x="1081" y="1136" type="line"/>
      <point x="1024" y="1184"/>
      <point x="948" y="1212"/>
      <point x="870" y="1212" type="curve" smooth="yes"/>
      <point x="626" y="1212"/>
      <point x="462" y="1017"/>
      <point x="462" y="750" type="curve" smooth="yes"/>
      <point x="462" y="483"/>
      <point x="626" y="288"/>
      <point x="870" y="288" type="curve" smooth="yes"/>
      <point x="959" y="288"/>
      <point x="1041" y="318"/>
      <point x="1098" y="368" type="curve"/>
      <point x="1146" y="300" type="line"/>
      <point x="1184" y="300" type="line"/>
      <point x="1184" y="546" type="line"/>
      <point x="1140" y="546" type="line"/>
      <point x="1128" y="424"/>
      <point x="1030" y="337"/>
    </contour>
    <contour>
      <point x="870" y="1520" type="curve" smooth="yes"/>
      <point x="444" y="1520"/>
      <point x="100" y="1176"/>
      <point x="100" y="750" type="curve" smooth="yes"/>
      <point x="100" y="324"/>
      <point x="444" y="-20"/>
      <point x="870" y="-20" type="curve" smooth="yes"/>
      <point x="1296" y="-20"/>
      <point x="1641" y="324"/>
      <point x="1641" y="750" type="curve" smooth="yes"/>
      <point x="1641" y="1176"/>
      <point x="1296" y="1520"/>
    </contour>
    <contour>
      <point x="870" y="53" type="curve" smooth="yes"/>
      <point x="483" y="53"/>
      <point x="174" y="363"/>
      <point x="174" y="750" type="curve" smooth="yes"/>
      <point x="174" y="1137"/>
      <point x="483" y="1447"/>
      <point x="870" y="1447" type="curve" smooth="yes"/>
      <point x="1257" y="1447"/>
      <point x="1566" y="1137"/>
      <point x="1566" y="750" type="curve" smooth="yes"/>
      <point x="1566" y="363"/>
      <point x="1257" y="53"/>
    </contour>
  </outline>
</glyph>
<glyph name="ordfeminine" format="2">
  <advance width="619"/>
  <unicode hex="00AA"/>
  <anchor x="307.6" y="964" name="bottom"/>
  <anchor x="520" y="964" name="ogonek"/>
  <anchor x="295.6" y="1516" name="top"/>
  <outline>
    <contour>
      <point x="500.8" y="952" type="curve" smooth="yes"/>
      <point x="546.4" y="952"/>
      <point x="574" y="967.6"/>
      <point x="595.6" y="983.8" type="curve"/>
      <point x="574.6" y="1025.2" type="line"/>
      <point x="566.2" y="1017.4"/>
      <point x="546.4" y="1007.2"/>
      <point x="533.8" y="1007.2" type="curve" smooth="yes"/>
      <point x="508" y="1007.2"/>
      <point x="504.4" y="1024.6"/>
      <point x="504.4" y="1048.6" type="curve" smooth="yes"/>
      <point x="504.4" y="1329.4" type="line" smooth="yes"/>
      <point x="504.4" y="1426.6"/>
      <point x="473.8" y="1525.6"/>
      <point x="308.8" y="1525.6" type="curve" smooth="yes"/>
      <point x="199.6" y="1525.6"/>
      <point x="89.2" y="1477.6"/>
      <point x="89.2" y="1403.2" type="curve" smooth="yes"/>
      <point x="89.2" y="1360"/>
      <point x="118" y="1337.2"/>
      <point x="154.6" y="1337.2" type="curve" smooth="yes"/>
      <point x="187.6" y="1337.2"/>
      <point x="223" y="1357.6"/>
      <point x="223" y="1405.6" type="curve" smooth="yes"/>
      <point x="223" y="1446.4"/>
      <point x="188.8" y="1469.2"/>
      <point x="154.6" y="1469.2" type="curve" smooth="yes"/>
      <point x="122.8" y="1469.2"/>
      <point x="90.4" y="1444"/>
      <point x="90.4" y="1403.2" type="curve"/>
      <point x="144.4" y="1403.2" type="line"/>
      <point x="144.4" y="1467.4"/>
      <point x="234.4" y="1486"/>
      <point x="290.8" y="1486" type="curve" smooth="yes"/>
      <point x="386.8" y="1486"/>
      <point x="402.4" y="1415.8"/>
      <point x="402.4" y="1329.4" type="curve" smooth="yes"/>
      <point x="402.4" y="1060" type="line" smooth="yes"/>
      <point x="402.4" y="989.2"/>
      <point x="444.4" y="952"/>
    </contour>
    <contour>
      <point x="218.2" y="952" type="curve" smooth="yes"/>
      <point x="340" y="952"/>
      <point x="426.4" y="1049.2"/>
      <point x="426.4" y="1186.6" type="curve"/>
      <point x="402.4" y="1186.6" type="line"/>
      <point x="402.4" y="1076.8"/>
      <point x="320.2" y="1009"/>
      <point x="257.8" y="1009" type="curve" smooth="yes"/>
      <point x="194.8" y="1009"/>
      <point x="160.6" y="1051.6"/>
      <point x="160.6" y="1111.6" type="curve" smooth="yes"/>
      <point x="160.6" y="1177"/>
      <point x="210.4" y="1240.6"/>
      <point x="316" y="1240.6" type="curve" smooth="yes"/>
      <point x="458.2" y="1240.6" type="line"/>
      <point x="458.2" y="1277.8" type="line"/>
      <point x="316" y="1277.8" type="line" smooth="yes"/>
      <point x="145.6" y="1277.8"/>
      <point x="47.2" y="1207"/>
      <point x="47.2" y="1100.2" type="curve" smooth="yes"/>
      <point x="47.2" y="1009"/>
      <point x="114.4" y="952"/>
    </contour>
  </outline>
</glyph>
<glyph name="registered" format="2">
  <advance width="1739"/>
  <unicode hex="00AE"/>
  <anchor x="906.6" y="296" name="bottom"/>
  <anchor x="678.6" y="296" name="cedilla"/>
  <anchor x="852.6" y="1196" name="top"/>
  <outline>
    <contour>
      <point x="870" y="-20" type="curve" smooth="yes"/>
      <point x="1296" y="-20"/>
      <point x="1641" y="324"/>
      <point x="1641" y="750" type="curve" smooth="yes"/>
      <point x="1641" y="1176"/>
      <point x="1296" y="1520"/>
      <point x="870" y="1520" type="curve" smooth="yes"/>
      <point x="444" y="1520"/>
      <point x="100" y="1176"/>
      <point x="100" y="750" type="curve" smooth="yes"/>
      <point x="100" y="324"/>
      <point x="444" y="-20"/>
    </contour>
    <contour>
      <point x="870" y="53" type="curve" smooth="yes"/>
      <point x="483" y="53"/>
      <point x="174" y="363"/>
      <point x="174" y="750" type="curve" smooth="yes"/>
      <point x="174" y="1137"/>
      <point x="483" y="1447"/>
      <point x="870" y="1447" type="curve" smooth="yes"/>
      <point x="1257" y="1447"/>
      <point x="1566" y="1137"/>
      <point x="1566" y="750" type="curve" smooth="yes"/>
      <point x="1566" y="363"/>
      <point x="1257" y="53"/>
    </contour>
    <contour>
      <point x="1183" y="290" type="curve" smooth="yes"/>
      <point x="1226" y="290"/>
      <point x="1271" y="298"/>
      <point x="1291" y="309" type="curve"/>
      <point x="1276" y="350" type="line"/>
      <point x="1259" y="343"/>
      <point x="1244" y="337"/>
      <point x="1219" y="337" type="curve" smooth="yes"/>
      <point x="1091" y="337"/>
      <point x="1279" y="714"/>
      <point x="949" y="742" type="curve"/>
      <point x="1104" y="755"/>
      <point x="1189" y="820"/>
      <point x="1189" y="959" type="curve" smooth="yes"/>
      <point x="1189" y="1115"/>
      <point x="1070" y="1196"/>
      <point x="889" y="1196" type="curve" smooth="yes"/>
      <point x="493" y="1196" type="line"/>
      <point x="493" y="1152" type="line"/>
      <point x="625" y="1152" type="line"/>
      <point x="625" y="340" type="line"/>
      <point x="493" y="340" type="line"/>
      <point x="493" y="296" type="line"/>
      <point x="871" y="296" type="line"/>
      <point x="871" y="340" type="line"/>
      <point x="739" y="340" type="line"/>
      <point x="739" y="721" type="line"/>
      <point x="883" y="721" type="line" smooth="yes"/>
      <point x="1178" y="721"/>
      <point x="903" y="290"/>
    </contour>
    <contour>
      <point x="739" y="765" type="line"/>
      <point x="739" y="1152" type="line"/>
      <point x="889" y="1152" type="line" smooth="yes"/>
      <point x="1003" y="1152"/>
      <point x="1069" y="1090"/>
      <point x="1069" y="959" type="curve" smooth="yes"/>
      <point x="1069" y="828"/>
      <point x="1003" y="765"/>
      <point x="889" y="765" type="curve" smooth="yes"/>
    </contour>
  </outline>
</glyph>
<glyph name="ordmasculine" format="2">
  <advance width="1139"/>
  <unicode hex="00BA"/>
  <anchor x="568.6" y="962" name="bottom"/>
  <anchor x="570.4" y="1514" name="top"/>
  <outline>
    <contour>
      <point x="571" y="950" type="curve" smooth="yes"/>
      <point x="740.2" y="950"/>
      <point x="845.2" y="1082"/>
      <point x="845.2" y="1238" type="curve" smooth="yes"/>
      <point x="845.2" y="1394"/>
      <point x="740.2" y="1525.4"/>
      <point x="571" y="1525.4" type="curve" smooth="yes"/>
      <point x="401.8" y="1525.4"/>
      <point x="295.6" y="1394"/>
      <point x="295.6" y="1238" type="curve" smooth="yes"/>
      <point x="295.6" y="1082"/>
      <point x="401.8" y="950"/>
    </contour>
    <contour>
      <point x="571" y="993.8" type="curve" smooth="yes"/>
      <point x="443.2" y="993.8"/>
      <point x="416.2" y="1125.2"/>
      <point x="416.2" y="1238" type="curve" smooth="yes"/>
      <point x="416.2" y="1350.8"/>
      <point x="443.2" y="1482.2"/>
      <point x="571" y="1482.2" type="curve" smooth="yes"/>
      <point x="698.8" y="1482.2"/>
      <point x="725.8" y="1350.8"/>
      <point x="725.8" y="1238" type="curve" smooth="yes"/>
      <point x="725.8" y="1125.2"/>
      <point x="698.8" y="993.8"/>
    </contour>
  </outline>
</glyph>
<glyph name="guillemetright" format="2">
  <advance width="1389"/>
  <unicode hex="00BB"/>
  <outline>
    <contour>
      <point x="681" y="290" type="line"/>
      <point x="1341" y="750" type="line"/>
      <point x="1341" y="800" type="line"/>
      <point x="681" y="1260" type="line"/>
      <point x="645" y="1224" type="line"/>
      <point x="1089" y="775" type="line"/>
      <point x="645" y="326" type="line"/>
    </contour>
    <contour>
      <point x="121" y="290" type="line"/>
      <point x="782" y="750" type="line"/>
      <point x="782" y="800" type="line"/>
      <point x="121" y="1260" type="line"/>
      <point x="84" y="1224" type="line"/>
      <point x="530" y="775" type="line"/>
      <point x="84" y="326" type="line"/>
    </contour>
  </outline>
</glyph>
<glyph name="onequarter" format="2">
  <advance width="1281"/>
  <unicode hex="00BC"/>
  <outline>
    <contour>
      <point x="63" y="-200" type="line"/>
      <point x="137" y="-200" type="line"/>
      <point x="1068" y="1300" type="line"/>
      <point x="996" y="1300" type="line"/>
    </contour>
    <contour>
      <point x="44" y="712" type="line"/>
      <point x="446" y="712" type="line"/>
      <point x="446" y="755.8" type="line"/>
      <point x="44" y="755.8" type="line"/>
    </contour>
    <contour>
      <point x="882" y="-206" type="line"/>
      <point x="1200" y="-206" type="line"/>
      <point x="1200" y="-162.2" type="line"/>
      <point x="1110" y="-162.2" type="line"/>
      <point x="1110" y="694" type="line"/>
      <point x="1014" y="694" type="line"/>
      <point x="575.4" y="30.4" type="line"/>
      <point x="1242" y="30.4" type="line"/>
      <point x="1242" y="74.2" type="line"/>
      <point x="657.6" y="74.2" type="line"/>
      <point x="996" y="583.6" type="line"/>
      <point x="996" y="-162.2" type="line"/>
      <point x="882" y="-162.2" type="line"/>
    </contour>
    <contour>
      <point x="199.4" y="724" type="line"/>
      <point x="314" y="724" type="line"/>
      <point x="314" y="1612" type="line"/>
      <point x="64.4" y="1612" type="line"/>
      <point x="64.4" y="1568.2" type="line"/>
      <point x="199.4" y="1568.2" type="line"/>
    </contour>
  </outline>
</glyph>
<glyph name="AE" format="2">
  <advance width="2033"/>
  <unicode hex="00C6"/>
  <outline>
    <contour>
      <point x="170" y="0" type="line"/>
      <point x="250" y="0" type="line"/>
      <point x="1121" y="1500" type="line"/>
      <point x="1050" y="1500" type="line"/>
    </contour>
    <contour>
      <point x="29" y="0" type="line"/>
      <point x="471" y="0" type="line"/>
      <point x="471" y="73" type="line"/>
      <point x="29" y="73" type="line"/>
    </contour>
    <contour>
      <point x="490" y="453" type="line"/>
      <point x="1070" y="453" type="line"/>
      <point x="1070" y="526" type="line"/>
      <point x="490" y="526" type="line"/>
    </contour>
    <contour>
      <point x="870" y="0" type="line"/>
      <point x="1973" y="0" type="line"/>
      <point x="1973" y="450" type="line"/>
      <point x="1900" y="450" type="line"/>
      <point x="1900" y="196"/>
      <point x="1834" y="73"/>
      <point x="1561" y="73" type="curve" smooth="yes"/>
      <point x="870" y="73" type="line"/>
    </contour>
    <contour>
      <point x="1050" y="0" type="line"/>
      <point x="1240" y="0" type="line"/>
      <point x="1240" y="1500" type="line"/>
      <point x="1050" y="1500" type="line"/>
    </contour>
    <contour>
      <point x="1540" y="557" type="curve"/>
      <point x="1613" y="557" type="line"/>
      <point x="1613" y="986" type="line"/>
      <point x="1540" y="986" type="line"/>
      <point x="1540" y="852"/>
      <point x="1472" y="812"/>
      <point x="1359" y="812" type="curve" smooth="yes"/>
      <point x="1240" y="812" type="line"/>
      <point x="1240" y="739" type="line"/>
      <point x="1359" y="739" type="line" smooth="yes"/>
      <point x="1472" y="739"/>
      <point x="1540" y="691"/>
    </contour>
    <contour>
      <point x="1880" y="1090" type="curve"/>
      <point x="1953" y="1090" type="line"/>
      <point x="1953" y="1500" type="line"/>
      <point x="1050" y="1500" type="line"/>
      <point x="1050" y="1427" type="line"/>
      <point x="1580" y="1427" type="line" smooth="yes"/>
      <point x="1814" y="1427"/>
      <point x="1880" y="1304"/>
    </contour>
  </outline>
</glyph>
<glyph name="Eth" format="2">
  <advance width="1502"/>
  <unicode hex="00D0"/>
  <anchor x="633" y="0" name="bottom"/>
  <anchor x="633" y="0" name="cedilla"/>
  <anchor x="634" y="1500" name="top"/>
  <outline>
    <contour>
      <point x="86" y="714" type="line"/>
      <point x="740" y="714" type="line"/>
      <point x="740" y="786" type="line"/>
      <point x="86" y="786" type="line"/>
    </contour>
    <component base="D"/>
  </outline>
</glyph>
<glyph name="Oslash" format="2">
  <advance width="1552"/>
  <unicode hex="00D8"/>
  <outline>
    <contour>
      <point x="322" y="-200" type="line"/>
      <point x="395" y="-200" type="line"/>
      <point x="1235" y="1661" type="line"/>
      <point x="1162" y="1661" type="line"/>
    </contour>
    <component base="O"/>
  </outline>
</glyph>
<glyph name="Thorn" format="2">
  <advance width="1209"/>
  <unicode hex="00DE"/>
  <outline>
    <contour>
      <point x="359" y="359" type="line"/>
      <point x="620" y="359" type="line" smooth="yes"/>
      <point x="981" y="359"/>
      <point x="1141" y="519"/>
      <point x="1141" y="779" type="curve" smooth="yes"/>
      <point x="1141" y="1039"/>
      <point x="981" y="1200"/>
      <point x="620" y="1200" type="curve" smooth="yes"/>
      <point x="359" y="1200" type="line"/>
      <point x="359" y="1127" type="line"/>
      <point x="620" y="1127" type="line" smooth="yes"/>
      <point x="811" y="1127"/>
      <point x="920" y="957"/>
      <point x="920" y="779" type="curve" smooth="yes"/>
      <point x="920" y="601"/>
      <point x="811" y="434"/>
      <point x="620" y="434" type="curve" smooth="yes"/>
      <point x="359" y="434" type="line"/>
    </contour>
    <contour>
      <point x="29" y="0" type="line"/>
      <point x="580" y="0" type="line"/>
      <point x="580" y="73" type="line"/>
      <point x="29" y="73" type="line"/>
    </contour>
    <contour>
      <point x="210" y="0" type="line"/>
      <point x="400" y="0" type="line"/>
      <point x="400" y="1500" type="line"/>
      <point x="210" y="1500" type="line"/>
    </contour>
    <contour>
      <point x="29" y="1427" type="line"/>
      <point x="580" y="1427" type="line"/>
      <point x="580" y="1500" type="line"/>
      <point x="29" y="1500" type="line"/>
    </contour>
  </outline>
</glyph>
<glyph name="eth" format="2">
  <advance width="1119"/>
  <unicode hex="00F0"/>
  <outline>
    <contour>
      <point x="532" y="-20" type="curve" smooth="yes"/>
      <point x="834" y="-20"/>
      <point x="1020" y="200"/>
      <point x="1020" y="620" type="curve" smooth="yes"/>
      <point x="1020" y="1120"/>
      <point x="648" y="1520"/>
      <point x="210" y="1520" type="curve"/>
      <point x="210" y="1453" type="line"/>
      <point x="558" y="1453"/>
      <point x="811" y="1084"/>
      <point x="811" y="740" type="curve"/>
      <point x="820" y="561" type="line"/>
      <point x="820" y="293"/>
      <point x="743" y="53"/>
      <point x="525" y="53" type="curve" smooth="yes"/>
      <point x="307" y="53"/>
      <point x="260" y="271"/>
      <point x="260" y="500" type="curve" smooth="yes"/>
      <point x="260" y="768"/>
      <point x="364" y="889"/>
      <point x="542" y="889" type="curve" smooth="yes"/>
      <point x="708" y="889"/>
      <point x="820" y="782"/>
      <point x="820" y="561" type="curve"/>
      <point x="881" y="561" type="line"/>
      <point x="881" y="795"/>
      <point x="760" y="980"/>
      <point x="498" y="980" type="curve" smooth="yes"/>
      <point x="296" y="980"/>
      <point x="61" y="840"/>
      <point x="61" y="500" type="curve" smooth="yes"/>
      <point x="61" y="200"/>
      <point x="230" y="-20"/>
    </contour>
    <contour>
      <point x="222" y="1189" type="line"/>
      <point x="1062" y="1188" type="line"/>
      <point x="1062" y="1261" type="line"/>
      <point x="222" y="1262" type="line"/>
    </contour>
  </outline>
</glyph>
<glyph name="oslash" format="2">
  <advance width="1139"/>
  <unicode hex="00F8"/>
  <outline>
    <contour>
      <point x="112" y="-246.452" type="line"/>
      <point x="185" y="-246.452" type="line"/>
      <point x="1025" y="1158.305" type="line"/>
      <point x="952" y="1158.305" type="line"/>
    </contour>
    <component base="o"/>
  </outline>
</glyph>
<glyph name="Dcroat" format="2">
  <advance width="1502"/>
  <unicode hex="0110"/>
  <outline>
    <contour>
      <point x="86.465" y="714" type="line"/>
      <point x="740.324" y="714" type="line"/>
      <point x="740.324" y="786" type="line"/>
      <point x="86.465" y="786" type="line"/>
    </contour>
    <component base="D"/>
  </outline>
</glyph>
<glyph name="Hbar" format="2">
  <advance width="1572"/>
  <unicode hex="0126"/>
  <outline>
    <contour>
      <point x="86" y="1074" type="line"/>
      <point x="1486.002" y="1074" type="line"/>
      <point x="1486.002" y="1146" type="line"/>
      <point x="86" y="1146" type="line"/>
    </contour>
    <component base="H"/>
  </outline>
</glyph>
<glyph name="idotless" format="2">
  <advance width="643"/>
  <unicode hex="0131"/>
  <anchor x="322" y="0" name="bottom"/>
  <anchor x="344" y="0" name="ogonek"/>
  <anchor x="322" y="920" name="top"/>
  <outline>
    <contour>
      <point x="412" y="920" type="line"/>
      <point x="92" y="920" type="line"/>
      <point x="92" y="847" type="line"/>
      <point x="232" y="847" type="line"/>
      <point x="232" y="73" type="line"/>
      <point x="92" y="73" type="line"/>
      <point x="92" y="0" type="line"/>
      <point x="552" y="0" type="line"/>
      <point x="552" y="73" type="line"/>
      <point x="412" y="73" type="line"/>
    </contour>
  </outline>
</glyph>
<glyph name="Eng" format="2">
  <advance width="1553"/>
  <unicode hex="014A"/>
  <outline>
    <contour>
      <point x="978" y="-520" type="curve" smooth="yes"/>
      <point x="1268" y="-520"/>
      <point x="1341" y="-283"/>
      <point x="1341" y="-23" type="curve" smooth="yes"/>
      <point x="1342" y="1029" type="line"/>
      <point x="1341" y="1283"/>
      <point x="1181" y="1519"/>
      <point x="842" y="1519" type="curve" smooth="yes"/>
      <point x="494" y="1519"/>
      <point x="348" y="1196"/>
      <point x="348" y="1031" type="curve"/>
      <point x="393" y="1031" type="line"/>
      <point x="393" y="1198"/>
      <point x="558" y="1412"/>
      <point x="809" y="1412" type="curve" smooth="yes"/>
      <point x="1026" y="1412"/>
      <point x="1162" y="1240"/>
      <point x="1162" y="992" type="curve" smooth="yes"/>
      <point x="1162" y="40" type="line" smooth="yes"/>
      <point x="1162" y="-214"/>
      <point x="1147" y="-451"/>
      <point x="967" y="-451" type="curve" smooth="yes"/>
      <point x="838" y="-451"/>
      <point x="757" y="-372"/>
      <point x="757" y="-292" type="curve"/>
      <point x="684" y="-292" type="line"/>
      <point x="684" y="-352"/>
      <point x="742" y="-385"/>
      <point x="800" y="-385" type="curve" smooth="yes"/>
      <point x="867" y="-385"/>
      <point x="907" y="-327"/>
      <point x="907" y="-276" type="curve" smooth="yes"/>
      <point x="907" y="-196"/>
      <point x="846" y="-168"/>
      <point x="796" y="-168" type="curve" smooth="yes"/>
      <point x="735" y="-168"/>
      <point x="682" y="-210"/>
      <point x="682" y="-292" type="curve" smooth="yes"/>
      <point x="682" y="-405"/>
      <point x="786" y="-520"/>
    </contour>
    <contour>
      <point x="82" y="0" type="line"/>
      <point x="531" y="0" type="line"/>
      <point x="531" y="73" type="line"/>
      <point x="82" y="73" type="line"/>
    </contour>
    <contour>
      <point x="222" y="0" type="line"/>
      <point x="393" y="0" type="line"/>
      <point x="393" y="1500" type="line"/>
      <point x="82" y="1500" type="line"/>
      <point x="82" y="1427" type="line"/>
      <point x="222" y="1427" type="line"/>
    </contour>
  </outline>
</glyph>
<glyph name="OE" format="2">
  <advance width="1979"/>
  <unicode hex="0152"/>
  <outline>
    <contour>
      <point x="779" y="1427" type="move"/>
    </contour>
    <contour>
      <point x="311" y="750" type="curve" smooth="yes"/>
      <point x="311" y="387"/>
      <point x="411" y="73"/>
      <point x="779" y="73" type="curve"/>
      <point x="760" y="0" type="line"/>
      <point x="354" y="0"/>
      <point x="80" y="305"/>
      <point x="80" y="750" type="curve" smooth="yes"/>
      <point x="80" y="1195"/>
      <point x="354" y="1500"/>
      <point x="760" y="1500" type="curve"/>
      <point x="779" y="1427" type="line"/>
      <point x="411" y="1427"/>
      <point x="311" y="1113"/>
    </contour>
    <component base="E" xOffset="674"/>
  </outline>
</glyph>
<glyph name="florin" format="2">
  <advance width="691"/>
  <unicode hex="0192"/>
  <outline>
    <contour>
      <point x="-124" y="-520" type="curve" smooth="yes"/>
      <point x="136" y="-520"/>
      <point x="284" y="-274"/>
      <point x="312" y="-23" type="curve" smooth="yes"/>
      <point x="434" y="1080" type="line" smooth="yes"/>
      <point x="461" y="1325"/>
      <point x="544" y="1447"/>
      <point x="685" y="1447" type="curve" smooth="yes"/>
      <point x="780" y="1447"/>
      <point x="837" y="1392"/>
      <point x="837" y="1322" type="curve"/>
      <point x="910" y="1322" type="line"/>
      <point x="910" y="1392"/>
      <point x="827" y="1418"/>
      <point x="790" y="1418" type="curve" smooth="yes"/>
      <point x="741" y="1418"/>
      <point x="684" y="1377"/>
      <point x="684" y="1307" type="curve" smooth="yes"/>
      <point x="684" y="1227"/>
      <point x="749" y="1198"/>
      <point x="799" y="1198" type="curve" smooth="yes"/>
      <point x="860" y="1198"/>
      <point x="912" y="1240"/>
      <point x="912" y="1322" type="curve" smooth="yes"/>
      <point x="912" y="1406"/>
      <point x="847" y="1520"/>
      <point x="685" y="1520" type="curve" smooth="yes"/>
      <point x="425" y="1520"/>
      <point x="266" y="1276"/>
      <point x="240" y="1023" type="curve" smooth="yes"/>
      <point x="127" y="-80" type="line" smooth="yes"/>
      <point x="102" y="-325"/>
      <point x="17" y="-447"/>
      <point x="-124" y="-447" type="curve" smooth="yes"/>
      <point x="-209" y="-447"/>
      <point x="-275" y="-402"/>
      <point x="-275" y="-322" type="curve"/>
      <point x="-348" y="-322" type="line"/>
      <point x="-348" y="-392"/>
      <point x="-276" y="-418"/>
      <point x="-232" y="-418" type="curve" smooth="yes"/>
      <point x="-183" y="-418"/>
      <point x="-124" y="-377"/>
      <point x="-124" y="-307" type="curve" smooth="yes"/>
      <point x="-124" y="-227"/>
      <point x="-186" y="-198"/>
      <point x="-236" y="-198" type="curve" smooth="yes"/>
      <point x="-297" y="-198"/>
      <point x="-350" y="-240"/>
      <point x="-350" y="-322" type="curve" smooth="yes"/>
      <point x="-350" y="-406"/>
      <point x="-286" y="-520"/>
    </contour>
    <contour>
      <point x="63" y="847" type="line"/>
      <point x="704" y="847" type="line"/>
      <point x="704" y="920" type="line"/>
      <point x="63" y="920" type="line"/>
    </contour>
  </outline>
</glyph>
<glyph name="gravecomb" format="2">
  <unicode hex="0300"/>
  <anchor x="571" y="1500" name="_top"/>
  <outline>
    <contour>
      <point x="621" y="1670" type="line"/>
      <point x="666" y="1719" type="line"/>
      <point x="454" y="1926" type="line" smooth="yes"/>
      <point x="412" y="1967"/>
      <point x="361" y="1948"/>
      <point x="342" y="1915" type="curve" smooth="yes"/>
      <point x="323" y="1882"/>
      <point x="337" y="1836"/>
      <point x="369" y="1817" type="curve" smooth="yes"/>
    </contour>
  </outline>
</glyph>
<glyph name="circumflexcomb" format="2">
  <unicode hex="0302"/>
  <anchor x="499" y="1500" name="_top"/>
  <outline>
    <contour>
      <point x="252" y="1682" type="line"/>
      <point x="499" y="1849" type="line"/>
      <point x="748" y="1682" type="line"/>
      <point x="785" y="1719" type="line"/>
      <point x="565" y="1939" type="line"/>
      <point x="435" y="1939" type="line"/>
      <point x="215" y="1719" type="line"/>
    </contour>
  </outline>
</glyph>
<glyph name="brevecomb" format="2">
  <unicode hex="0306"/>
  <anchor x="499" y="1500" name="_top"/>
  <outline>
    <contour>
      <point x="499" y="1680" type="curve" smooth="yes"/>
      <point x="679" y="1680"/>
      <point x="720" y="1816"/>
      <point x="720" y="1938" type="curve"/>
      <point x="680" y="1938" type="line"/>
      <point x="680" y="1840"/>
      <point x="606" y="1790"/>
      <point x="499" y="1790" type="curve" smooth="yes"/>
      <point x="392" y="1790"/>
      <point x="320" y="1840"/>
      <point x="320" y="1938" type="curve"/>
      <point x="281" y="1938" type="line"/>
      <point x="281" y="1816"/>
      <point x="319" y="1680"/>
    </contour>
  </outline>
</glyph>
<glyph name="breveinvertedcomb" format="2">
  <unicode hex="0311"/>
  <anchor x="499" y="1500" name="_top"/>
  <outline>
    <contour>
      <point x="281" y="1680" type="curve"/>
      <point x="321" y="1680" type="line"/>
      <point x="321" y="1778"/>
      <point x="395" y="1828"/>
      <point x="502" y="1828" type="curve" smooth="yes"/>
      <point x="609" y="1828"/>
      <point x="681" y="1778"/>
      <point x="681" y="1680" type="curve"/>
      <point x="720" y="1680" type="line"/>
      <point x="720" y="1802"/>
      <point x="682" y="1938"/>
      <point x="502" y="1938" type="curve" smooth="yes"/>
      <point x="322" y="1938"/>
      <point x="281" y="1802"/>
    </contour>
  </outline>
</glyph>
<glyph name="commaturnedabovecomb" format="2">
  <unicode hex="0312"/>
  <anchor x="497" y="920" name="_top"/>
  <outline>
    <contour>
      <point x="501" y="1098" type="curve" smooth="yes"/>
      <point x="562" y="1098"/>
      <point x="608" y="1140"/>
      <point x="608" y="1193" type="curve" smooth="yes"/>
      <point x="608" y="1245"/>
      <point x="576" y="1287"/>
      <point x="507" y="1287" type="curve" smooth="yes"/>
      <point x="461" y="1287"/>
      <point x="430" y="1257"/>
      <point x="430" y="1249" type="curve"/>
      <point x="449" y="1249" type="line"/>
      <point x="449" y="1385"/>
      <point x="528" y="1461"/>
      <point x="611" y="1461" type="curve"/>
      <point x="611" y="1521" type="line"/>
      <point x="467" y="1521"/>
      <point x="389" y="1385"/>
      <point x="389" y="1249" type="curve" smooth="yes"/>
      <point x="389" y="1148"/>
      <point x="438" y="1098"/>
    </contour>
  </outline>
</glyph>
<glyph name="commaaccentcomb" format="2">
  <unicode hex="0326"/>
  <anchor x="496" y="0" name="_bottom"/>
  <outline>
    <contour>
      <point x="389" y="-623" type="line"/>
      <point x="533" y="-623"/>
      <point x="611" y="-487"/>
      <point x="611" y="-351" type="curve" smooth="yes"/>
      <point x="611" y="-250"/>
      <point x="562" y="-200"/>
      <point x="499" y="-200" type="curve" smooth="yes"/>
      <point x="438" y="-200"/>
      <point x="392" y="-242"/>
      <point x="392" y="-295" type="curve" smooth="yes"/>
      <point x="392" y="-347"/>
      <point x="424" y="-389"/>
      <point x="493" y="-389" type="curve" smooth="yes"/>
      <point x="539" y="-389"/>
      <point x="570" y="-359"/>
      <point x="570" y="-351" type="curve"/>
      <point x="551" y="-351" type="line"/>
      <point x="551" y="-487"/>
      <point x="472" y="-563"/>
      <point x="389" y="-563" type="curve"/>
    </contour>
  </outline>
</glyph>
<glyph name="horizontalbar" format="2">
  <advance width="1715"/>
  <unicode hex="2015"/>
  <outline>
    <contour>
      <point x="120.034" y="514" type="line"/>
      <point x="1596.168" y="514" type="line"/>
      <point x="1596.168" y="586" type="line"/>
      <point x="120.034" y="586" type="line"/>
    </contour>
  </outline>
</glyph>
<glyph name="trademark" format="2">
  <advance width="1233"/>
  <unicode hex="2122"/>
  <anchor x="327.76" y="975" name="bottom"/>
  <anchor x="327.4" y="1515" name="top"/>
  <outline>
    <contour>
      <point x="876" y="968" type="line"/>
      <point x="908" y="968" type="line"/>
      <point x="1086" y="1491" type="line"/>
      <point x="1086" y="1001" type="line"/>
      <point x="1029" y="1001" type="line"/>
      <point x="1029" y="975" type="line"/>
      <point x="1205" y="975" type="line"/>
      <point x="1205" y="1001" type="line"/>
      <point x="1155" y="1001" type="line"/>
      <point x="1155" y="1489" type="line"/>
      <point x="1205" y="1489" type="line"/>
      <point x="1205" y="1515" type="line"/>
      <point x="1065" y="1515" type="line"/>
      <point x="912" y="1061" type="line"/>
      <point x="744" y="1515" type="line"/>
      <point x="607" y="1515" type="line"/>
      <point x="607" y="1489" type="line"/>
      <point x="661" y="1489" type="line"/>
      <point x="661" y="1001" type="line"/>
      <point x="611" y="1001" type="line"/>
      <point x="611" y="975" type="line"/>
      <point x="739" y="975" type="line"/>
      <point x="739" y="1001" type="line"/>
      <point x="689" y="1001" type="line"/>
      <point x="689" y="1477" type="line"/>
    </contour>
    <contour>
      <point x="214" y="975" type="line"/>
      <point x="440" y="975" type="line"/>
      <point x="440" y="1001" type="line"/>
      <point x="362" y="1001" type="line"/>
      <point x="362" y="1489" type="line"/>
      <point x="434" y="1489" type="line" smooth="yes"/>
      <point x="518" y="1489"/>
      <point x="527" y="1444"/>
      <point x="527" y="1353" type="curve"/>
      <point x="553" y="1353" type="line"/>
      <point x="553" y="1515" type="line"/>
      <point x="101" y="1515" type="line"/>
      <point x="101" y="1353" type="line"/>
      <point x="128" y="1353" type="line"/>
      <point x="128" y="1444"/>
      <point x="137" y="1489"/>
      <point x="221" y="1489" type="curve" smooth="yes"/>
      <point x="293" y="1489" type="line"/>
      <point x="293" y="1001" type="line"/>
      <point x="214" y="1001" type="line"/>
    </contour>
  </outline>
</glyph>
<glyph name="product" format="2">
  <advance width="1572"/>
  <unicode hex="220F"/>
  <outline>
    <contour>
      <point x="1116" y="0" type="line"/>
      <point x="1307" y="0" type="line"/>
      <point x="1307" y="1500" type="line"/>
      <point x="1116" y="1500" type="line"/>
    </contour>
    <contour>
      <point x="86" y="0" type="line"/>
      <point x="656" y="0" type="line"/>
      <point x="656" y="73" type="line"/>
      <point x="86" y="73" type="line"/>
    </contour>
    <contour>
      <point x="267" y="0" type="line"/>
      <point x="457" y="0" type="line"/>
      <point x="457" y="1500" type="line"/>
      <point x="267" y="1500" type="line"/>
    </contour>
    <contour>
      <point x="916" y="0" type="line"/>
      <point x="1486" y="0" type="line"/>
      <point x="1486" y="73" type="line"/>
      <point x="916" y="73" type="line"/>
    </contour>
    <contour>
      <point x="86" y="1427" type="line"/>
      <point x="1486" y="1427" type="line"/>
      <point x="1486" y="1500" type="line"/>
      <point x="86" y="1500" type="line"/>
    </contour>
  </outline>
</glyph>
<glyph name="notequal" format="2">
  <advance width="1119"/>
  <unicode hex="2260"/>
  <outline>
    <contour>
      <point x="268.828" y="285.161" type="line"/>
      <point x="910.96" y="1202.221" type="line"/>
      <point x="851.981" y="1243.519" type="line"/>
      <point x="209.85" y="326.459" type="line"/>
    </contour>
    <contour>
      <point x="120" y="584" type="line"/>
      <point x="1000" y="584" type="line"/>
      <point x="1000" y="656" type="line"/>
      <point x="120" y="656" type="line"/>
    </contour>
    <contour>
      <point x="120" y="885" type="line"/>
      <point x="1000" y="885" type="line"/>
      <point x="1000" y="957" type="line"/>
      <point x="120" y="957" type="line"/>
    </contour>
  </outline>
</glyph>
<glyph name="greaterequal" format="2">
  <advance width="1119"/>
  <unicode hex="2265"/>
  <outline>
    <contour>
      <point x="120" y="1146" type="line"/>
      <point x="934" y="775" type="line"/>
      <point x="120" y="404" type="line"/>
      <point x="120" y="325" type="line"/>
      <point x="1000" y="726" type="line"/>
      <point x="1000" y="824" type="line"/>
      <point x="120" y="1224" type="line"/>
    </contour>
    <contour>
      <point x="1000" y="44" type="line"/>
      <point x="1000" y="116" type="line"/>
      <point x="120" y="116" type="line"/>
      <point x="120" y="44" type="line"/>
    </contour>
  </outline>
</glyph>
<glyph name="c.sc" format="2">
  <advance width="1138"/>
  <anchor x="632" y="0" name="bottom"/>
  <anchor x="629" y="1020" name="top"/>
  <outline>
    <contour>
      <point x="619" y="-20" type="curve" smooth="yes"/>
      <point x="719" y="-20"/>
      <point x="826" y="33"/>
      <point x="903" y="109" type="curve"/>
      <point x="949" y="0" type="line"/>
      <point x="1013" y="0" type="line"/>
      <point x="1013" y="330" type="line"/>
      <point x="940" y="330" type="line"/>
      <point x="920" y="206"/>
      <point x="797" y="62"/>
      <point x="649" y="62" type="curve" smooth="yes"/>
      <point x="461" y="62"/>
      <point x="329" y="197"/>
      <point x="329" y="510" type="curve" smooth="yes"/>
      <point x="329" y="823"/>
      <point x="451" y="958"/>
      <point x="639" y="958" type="curve" smooth="yes"/>
      <point x="777" y="958"/>
      <point x="909" y="835"/>
      <point x="929" y="690" type="curve"/>
      <point x="1003" y="690" type="line"/>
      <point x="1003" y="1020" type="line"/>
      <point x="939" y="1020" type="line"/>
      <point x="888" y="919" type="line"/>
      <point x="817" y="988"/>
      <point x="718" y="1040"/>
      <point x="609" y="1040" type="curve" smooth="yes"/>
      <point x="393" y="1040"/>
      <point x="100" y="905"/>
      <point x="100" y="510" type="curve" smooth="yes"/>
      <point x="100" y="115"/>
      <point x="383" y="-20"/>
    </contour>
  </outline>
</glyph>
<glyph name="caroncomb.alt" format="2">
  <anchor x="341" y="920" name="_topright"/>
  <outline>
    <contour>
      <point x="361" y="972" type="line"/>
      <point x="541" y="972"/>
      <point x="639" y="1141"/>
      <point x="639" y="1312" type="curve" smooth="yes"/>
      <point x="639" y="1438"/>
      <point x="577" y="1500"/>
      <point x="499" y="1500" type="curve" smooth="yes"/>
      <point x="423" y="1500"/>
      <point x="365" y="1448"/>
      <point x="365" y="1382" type="curve" smooth="yes"/>
      <point x="365" y="1316"/>
      <point x="405" y="1264"/>
      <point x="491" y="1264" type="curve" smooth="yes"/>
      <point x="549" y="1264"/>
      <point x="587" y="1302"/>
      <point x="587" y="1312" type="curve"/>
      <point x="564" y="1312" type="line"/>
      <point x="564" y="1142"/>
      <point x="465" y="1046"/>
      <point x="361" y="1046" type="curve"/>
    </contour>
  </outline>
</glyph>
<glyph name="five.osf" format="2">
  <advance width="1000"/>
  <outline>
    <contour>
      <point x="432" y="-525.018" type="curve" smooth="yes"/>
      <point x="734" y="-525.018"/>
      <point x="939" y="-315.822"/>
      <point x="939" y="-68.591" type="curve" smooth="yes"/>
      <point x="939" y="216.676"/>
      <point x="766" y="386.886"/>
      <point x="504" y="386.886" type="curve" smooth="yes"/>
      <point x="302" y="386.886"/>
      <point x="186" y="281.337"/>
      <point x="154" y="210.971" type="curve"/>
      <point x="221" y="210.971" type="line"/>
      <point x="250" y="254.712"/>
      <point x="310" y="303.207"/>
      <point x="460" y="303.207" type="curve" smooth="yes"/>
      <point x="638" y="303.207"/>
      <point x="730" y="149.163"/>
      <point x="730" y="-68.591" type="curve" smooth="yes"/>
      <point x="730" y="-247.358"/>
      <point x="670" y="-453.701"/>
      <point x="412" y="-453.701" type="curve" smooth="yes"/>
      <point x="244" y="-453.701"/>
      <point x="136" y="-346.25"/>
      <point x="136" y="-260.67" type="curve"/>
      <point x="63" y="-260.67" type="line"/>
      <point x="63" y="-317.724"/>
      <point x="122" y="-353.858"/>
      <point x="174" y="-353.858" type="curve" smooth="yes"/>
      <point x="233" y="-353.858"/>
      <point x="288" y="-315.822"/>
      <point x="288" y="-249.26" type="curve" smooth="yes"/>
      <point x="288" y="-173.188"/>
      <point x="224" y="-142.76"/>
      <point x="174" y="-142.76" type="curve" smooth="yes"/>
      <point x="113" y="-142.76"/>
      <point x="61" y="-182.697"/>
      <point x="61" y="-260.67" type="curve" smooth="yes"/>
      <point x="61" y="-398.549"/>
      <point x="228" y="-525.018"/>
    </contour>
    <contour>
      <point x="134" y="210.971" type="line"/>
      <point x="207" y="210.971" type="line"/>
      <point x="207" y="749.175" type="line"/>
      <point x="870" y="749.175" type="line"/>
      <point x="870" y="1023.982" type="line"/>
      <point x="797" y="1023.982" type="line"/>
      <point x="797" y="920.335" type="line"/>
      <point x="134" y="920.335" type="line"/>
    </contour>
  </outline>
</glyph>
<glyph name="four.alt" format="2">
  <advance width="1189"/>
  <outline>
    <contour>
      <point x="29" y="354" type="curve"/>
      <point x="1090" y="354" type="line"/>
      <point x="1090" y="427" type="line"/>
      <point x="156" y="427" type="line"/>
      <point x="438" y="816"/>
      <point x="838" y="1210"/>
      <point x="876" y="1500" type="curve"/>
      <point x="680" y="1500" type="line"/>
      <point x="640" y="1200"/>
      <point x="308" y="754"/>
    </contour>
    <contour>
      <point x="529" y="0" type="line"/>
      <point x="1061" y="0" type="line"/>
      <point x="1061" y="73" type="line"/>
      <point x="529" y="73" type="line"/>
    </contour>
    <contour>
      <point x="721" y="0" type="line"/>
      <point x="910" y="0" type="line"/>
      <point x="910" y="996" type="line"/>
      <point x="870" y="976"/>
      <point x="782" y="956"/>
      <point x="721" y="956" type="curve"/>
    </contour>
  </outline>
</glyph>
<glyph name="l.sc" format="2">
  <advance width="999"/>
  <anchor x="565" y="0" name="bottom"/>
  <anchor x="565" y="0" name="cedilla"/>
  <anchor x="310" y="460" name="center"/>
  <anchor x="313" y="1020" name="top"/>
  <anchor x="636" y="463" name="topright"/>
  <outline>
    <contour>
      <point x="85" y="0" type="line"/>
      <point x="979" y="0" type="line"/>
      <point x="979" y="350" type="line"/>
      <point x="905" y="350" type="line"/>
      <point x="905" y="156"/>
      <point x="880" y="73"/>
      <point x="566" y="73" type="curve" smooth="yes"/>
      <point x="406" y="73" type="line"/>
      <point x="406" y="947" type="line"/>
      <point x="536" y="947" type="line"/>
      <point x="536" y="1020" type="line"/>
      <point x="85" y="1020" type="line"/>
      <point x="85" y="947" type="line"/>
      <point x="216" y="947" type="line"/>
      <point x="216" y="73" type="line"/>
      <point x="85" y="73" type="line"/>
    </contour>
  </outline>
</glyph>
<glyph name="lslash.sc" format="2">
  <advance width="999"/>
  <outline>
    <contour>
      <point x="85" y="366" type="line"/>
      <point x="606" y="656" type="line"/>
      <point x="606" y="740" type="line"/>
      <point x="85" y="451" type="line"/>
    </contour>
    <component base="l.sc"/>
  </outline>
</glyph>
<glyph name="n.sc" format="2">
  <advance width="1312"/>
  <anchor x="625" y="0" name="bottom"/>
  <anchor x="705" y="1020" name="top"/>
  <outline>
    <contour>
      <point x="978" y="-20" type="line"/>
      <point x="1081" y="-20" type="line"/>
      <point x="1081" y="1020" type="line"/>
      <point x="1005" y="1020" type="line"/>
      <point x="1005" y="314" type="line"/>
      <point x="499" y="1020" type="line"/>
      <point x="269" y="1020" type="line"/>
    </contour>
    <contour>
      <point x="85" y="0" type="line"/>
      <point x="453" y="0" type="line"/>
      <point x="453" y="73" type="line"/>
      <point x="85" y="73" type="line"/>
    </contour>
    <contour>
      <point x="246" y="0" type="line"/>
      <point x="322" y="0" type="line"/>
      <point x="322" y="1020" type="line"/>
      <point x="85" y="1020" type="line"/>
      <point x="85" y="947" type="line"/>
      <point x="246" y="947" type="line"/>
    </contour>
    <contour>
      <point x="834" y="947" type="line"/>
      <point x="1242" y="947" type="line"/>
      <point x="1242" y="1020" type="line"/>
      <point x="834" y="1020" type="line"/>
    </contour>
  </outline>
</glyph>
<glyph name="seven.osf" format="2">
  <advance width="1009"/>
  <outline>
    <contour>
      <point x="468" y="-519.947" type="curve" smooth="yes"/>
      <point x="556" y="-519.947"/>
      <point x="596" y="-461.21"/>
      <point x="596" y="-391.105" type="curve" smooth="yes"/>
      <point x="596" y="-303.947"/>
      <point x="510" y="-275.526"/>
      <point x="510" y="-137.21" type="curve" smooth="yes"/>
      <point x="510" y="-53.841"/>
      <point x="526" y="18.159"/>
      <point x="618" y="196.264" type="curve" smooth="yes"/>
      <point x="755" y="458.686"/>
      <point x="990" y="920.055"/>
      <point x="990" y="920.055" type="curve"/>
      <point x="80" y="920.055" type="line"/>
      <point x="80" y="597.949" type="line"/>
      <point x="153" y="597.949" type="line"/>
      <point x="153" y="741.002" type="line"/>
      <point x="812" y="741.002" type="line"/>
      <point x="730" y="576.16"/>
      <point x="608" y="338.37"/>
      <point x="530" y="196.264" type="curve" smooth="yes"/>
      <point x="419" y="-10.262"/>
      <point x="336" y="-207.315"/>
      <point x="336" y="-357" type="curve" smooth="yes"/>
      <point x="336" y="-488.684"/>
      <point x="390" y="-519.947"/>
    </contour>
  </outline>
</glyph>
<glyph name="three.osf" format="2">
  <advance width="1041"/>
  <outline>
    <contour>
      <point x="462" y="-519.96" type="curve" smooth="yes"/>
      <point x="744" y="-519.96"/>
      <point x="962" y="-368.283"/>
      <point x="962" y="-121.808" type="curve" smooth="yes"/>
      <point x="962" y="87.696"/>
      <point x="848" y="276.344"/>
      <point x="366" y="276.344" type="curve"/>
      <point x="366" y="233.685" type="line"/>
      <point x="704" y="233.685"/>
      <point x="760" y="18.493"/>
      <point x="760" y="-121.808" type="curve" smooth="yes"/>
      <point x="760" y="-300.028"/>
      <point x="660" y="-454.549"/>
      <point x="422" y="-454.549" type="curve" smooth="yes"/>
      <point x="246" y="-454.549"/>
      <point x="125" y="-360.699"/>
      <point x="125" y="-246.941" type="curve"/>
      <point x="52" y="-246.941" type="line"/>
      <point x="52" y="-294.34"/>
      <point x="106" y="-330.364"/>
      <point x="164" y="-330.364" type="curve" smooth="yes"/>
      <point x="223" y="-330.364"/>
      <point x="277" y="-291.496"/>
      <point x="277" y="-230.826" type="curve" smooth="yes"/>
      <point x="277" y="-162.571"/>
      <point x="231" y="-125.6"/>
      <point x="170" y="-125.6" type="curve" smooth="yes"/>
      <point x="100" y="-125.6"/>
      <point x="50" y="-169.207"/>
      <point x="50" y="-246.941" type="curve" smooth="yes"/>
      <point x="50" y="-384.398"/>
      <point x="178" y="-519.96"/>
    </contour>
    <contour>
      <point x="366" y="259.28" type="line"/>
      <point x="828" y="259.28"/>
      <point x="902" y="429.916"/>
      <point x="902" y="619.512" type="curve" smooth="yes"/>
      <point x="902" y="829.016"/>
      <point x="705" y="938.034"/>
      <point x="482" y="938.034" type="curve" smooth="yes"/>
      <point x="278" y="938.034"/>
      <point x="109" y="816.692"/>
      <point x="109" y="679.235" type="curve" smooth="yes"/>
      <point x="109" y="601.501"/>
      <point x="164" y="561.686"/>
      <point x="225" y="561.686" type="curve" smooth="yes"/>
      <point x="275" y="561.686"/>
      <point x="338" y="591.073"/>
      <point x="338" y="666.911" type="curve" smooth="yes"/>
      <point x="338" y="733.27"/>
      <point x="284" y="767.397"/>
      <point x="225" y="767.397" type="curve" smooth="yes"/>
      <point x="174" y="767.397"/>
      <point x="111" y="736.114"/>
      <point x="111" y="679.235" type="curve"/>
      <point x="184" y="679.235" type="line"/>
      <point x="184" y="802.473"/>
      <point x="319" y="871.675"/>
      <point x="452" y="871.675" type="curve" smooth="yes"/>
      <point x="610" y="871.675"/>
      <point x="700" y="759.813"/>
      <point x="700" y="619.512" type="curve" smooth="yes"/>
      <point x="700" y="498.171"/>
      <point x="684" y="301.939"/>
      <point x="366" y="301.939" type="curve"/>
    </contour>
  </outline>
</glyph>
<glyph name="v.sc" format="2">
  <advance width="1198"/>
  <anchor x="604" y="0" name="bottom"/>
  <anchor x="822" y="0" name="cedilla"/>
  <anchor x="710" y="1020" name="top"/>
  <outline>
    <contour>
      <point x="559" y="-29" type="line"/>
      <point x="626" y="-29" type="line"/>
      <point x="1101" y="1020" type="line"/>
      <point x="1017" y="1020" type="line"/>
      <point x="661" y="213" type="line"/>
      <point x="311" y="1020" type="line"/>
      <point x="91" y="1020" type="line"/>
    </contour>
    <contour>
      <point x="0" y="947" type="line"/>
      <point x="500" y="947" type="line"/>
      <point x="500" y="1020" type="line"/>
      <point x="0" y="1020" type="line"/>
    </contour>
    <contour>
      <point x="841" y="947" type="line"/>
      <point x="1198" y="947" type="line"/>
      <point x="1198" y="1020" type="line"/>
      <point x="841" y="1020" type="line"/>
    </contour>
  </outline>
</glyph>
